HIERARCHY
ROOT hip
{
	OFFSET 0.000000 0.000000 0.000000
	CHANNELS 6 Xposition Yposition Zposition Xrotation Zrotation Yrotation 
	JOINT abdomen
	{
		OFFSET 0.000000 3.422050 0.000000
		CHANNELS 3 Xrotation Zrotation Yrotation 
		JOINT chest
		{
			OFFSET 0.000000 8.486693 -0.684411
			CHANNELS 3 Xrotation Zrotation Yrotation 
			JOINT neck
			{
				OFFSET 0.000000 10.266162 -0.273764
				CHANNELS 3 Xrotation Zrotation Yrotation 
				JOINT head
				{
					OFFSET 0.000000 3.148285 0.000000
					CHANNELS 3 Xrotation Zrotation Yrotation 
					End Site
					{
						OFFSET 0.000000 3.148289 0.000000
					}
				}
			}
			JOINT lCollar
			{
				OFFSET 3.422053 6.707223 -0.821293
				CHANNELS 3 Yrotation Zrotation Xrotation 
				JOINT lShldr
				{
					OFFSET 3.285171 0.000000 0.000000
					CHANNELS 3 Zrotation Yrotation Xrotation 
					JOINT lForeArm
					{
						OFFSET 10.129278 0.000000 0.000000
						CHANNELS 3 Yrotation Zrotation Xrotation 
						JOINT lHand
						{
							OFFSET 8.486692 0.000000 0.000000
							CHANNELS 3 Zrotation Yrotation Xrotation 
							End Site
							{
								OFFSET 4.106464 0.000000 0.000000
							}
						}
					}
				}
			}
			JOINT rCollar
			{
				OFFSET -3.558935 6.707223 -0.821293
				CHANNELS 3 Yrotation Zrotation Xrotation 
				JOINT rShldr
				{
					OFFSET -3.148289 0.000000 0.000000
					CHANNELS 3 Zrotation Yrotation Xrotation 
					JOINT rForeArm
					{
						OFFSET -10.266159 0.000000 0.000000
						CHANNELS 3 Yrotation Zrotation Xrotation 
						JOINT rHand
						{
							OFFSET -8.349810 0.000000 0.000000
							CHANNELS 3 Zrotation Yrotation Xrotation 
							End Site
							{
								OFFSET -4.106464 0.000000 0.000000
							}
						}
					}
				}
			}
		}
	}
	JOINT lThigh
	{
		OFFSET 5.338403 -1.642589 1.368821
		CHANNELS 3 Xrotation Zrotation Yrotation 
		JOINT lShin
		{
			OFFSET -2.053232 -20.121670 0.000000
			CHANNELS 3 Xrotation Zrotation Yrotation 
			JOINT lFoot
			{
				OFFSET 0.000000 -19.300380 -1.231939
				CHANNELS 3 Xrotation Yrotation Zrotation 
				End Site
				{
					OFFSET 0.000000 -2.463878 4.653993
				}
			}
		}
	}
	JOINT rThigh
	{
		OFFSET -5.338403 -1.642589 1.368821
		CHANNELS 3 Xrotation Zrotation Yrotation 
		JOINT rShin
		{
			OFFSET 2.053232 -20.121670 0.000000
			CHANNELS 3 Xrotation Zrotation Yrotation 
			JOINT rFoot
			{
				OFFSET 0.000000 -19.300380 -1.231939
				CHANNELS 3 Xrotation Yrotation Zrotation 
				End Site
				{
					OFFSET 0.000000 -2.463878 4.653993
				}
			}
		}
	}
}
MOTION
Frames: 10
Frame Time: 0.049989
0.000000 5.840584 0.000000 -90.001877 0.000000 0.000000 0.261402 0.541587 -0.556560 1.740723 6.770503 1.618343 33.800655 -0.170021 -9.405085 5.786247 0.000000 0.000000 -0.010062 -8.370779 -0.209368 -32.696507 -42.969147 13.140753 -102.501923 -5.533647 -22.363049 -12.193167 0.000000 0.000000 8.679903 16.737415 -2.486282 42.294632 7.836202 -19.173937 108.141960 6.756350 -22.430218 43.999180 -0.000538 17.399616 -20.405159 10.797662 0.233442 47.454395 -2.343070 -0.149307 32.509850 -2.573077 0.952554 -20.404957 -10.801742 -0.236303 47.454285 2.341269 0.144693 32.509842 2.568740 -0.954932 
0.000000 5.840584 0.000000 -90.001877 0.000000 0.000000 0.261402 0.541587 -0.556560 1.740723 6.770503 1.618343 31.590233 -0.314652 -8.798596 7.578478 0.000000 0.000000 -0.010062 -8.370779 -0.209368 -31.927675 -42.946148 12.520777 -102.002846 -5.727188 -23.151928 -12.925999 0.000000 0.000000 8.679903 16.737415 -2.486282 41.726803 8.121632 -18.901945 106.846237 7.390004 -23.229719 43.999180 -0.000538 17.399616 -20.405159 10.797662 0.233442 47.454395 -2.343070 -0.149307 32.509850 -2.573077 0.952554 -20.404957 -10.801742 -0.236303 47.454285 2.341269 0.144693 32.509842 2.568740 -0.954932 
0.000000 5.840584 0.000000 -90.001877 0.000000 0.000000 0.261402 0.541587 -0.556560 1.740723 6.770503 1.618343 29.368410 -0.436267 -8.184210 9.375586 0.000000 0.000000 -0.010062 -8.370779 -0.209368 -31.158829 -42.917038 11.900954 -101.504852 -5.928141 -23.941677 -13.659991 0.000000 0.000000 8.679902 16.737413 -2.486282 41.159054 8.410156 -18.632217 105.546425 8.047124 -24.022528 43.999180 -0.000538 17.399616 -20.405159 10.797662 0.233442 47.454395 -2.343070 -0.149307 32.509850 -2.573077 0.952554 -20.404957 -10.801742 -0.236303 47.454285 2.341269 0.144693 32.509842 2.568740 -0.954932 
0.000000 5.840584 0.000000 -90.001877 0.000000 0.000000 0.261402 0.541587 -0.556560 1.740723 6.770503 1.618343 27.137182 -0.534281 -7.563272 11.176706 0.000000 0.000000 -0.010062 -8.370779 -0.209368 -30.390156 -42.881794 11.281478 -101.008133 -6.136488 -24.732147 -14.395083 0.000000 0.000000 8.679904 16.737415 -2.486282 40.591442 8.701735 -18.364805 104.243042 8.727495 -24.807783 43.999180 -0.000538 17.399616 -20.405159 10.797662 0.233442 47.454395 -2.343070 -0.149307 32.509850 -2.573077 0.952554 -20.404957 -10.801742 -0.236303 47.454285 2.341269 0.144693 32.509842 2.568740 -0.954932 
0.000000 5.840584 0.000000 -90.001877 0.000000 0.000000 0.261402 0.541587 -0.556560 1.740723 6.770503 1.618343 24.898556 -0.608219 -6.937178 12.980960 0.000000 0.000000 -0.010062 -8.370779 -0.209368 -29.621872 -42.840454 10.662562 -100.512840 -6.352204 -25.523180 -15.131222 0.000000 0.000000 8.679903 16.737415 -2.486282 40.023975 8.996324 -18.099751 102.936600 9.430842 -25.584635 43.999180 -0.000538 17.399616 -20.405159 10.797662 0.233442 47.454395 -2.343070 -0.149307 32.509850 -2.573077 0.952554 -20.404957 -10.801742 -0.236303 47.454285 2.341269 0.144693 32.509842 2.568740 -0.954932 
0.000000 5.840584 0.000000 -90.001877 0.000000 0.000000 0.261402 0.541587 -0.556560 1.740723 6.770503 1.618343 22.654617 -0.657718 -6.307370 14.787454 0.000000 0.000000 -0.010062 -8.370779 -0.209368 -28.854179 -42.792992 10.044405 -100.019142 -6.575255 -26.314619 -15.868341 0.000000 0.000000 8.679902 16.737413 -2.486282 39.456699 9.293877 -17.837114 101.627632 10.156822 -26.352221 43.999184 -0.000538 17.399618 -20.405159 10.797662 0.233442 47.454395 -2.343070 -0.149307 32.509850 -2.573077 0.952554 -20.404957 -10.801742 -0.236303 47.454285 2.341269 0.144693 32.509842 2.568740 -0.954932 
0.000000 5.840584 0.000000 -90.001877 0.000000 0.000000 0.261402 0.541587 -0.556560 1.740723 6.770503 1.618343 20.407473 -0.682534 -5.675320 16.595303 0.000000 0.000000 -0.010062 -8.370779 -0.209368 -28.087271 -42.739418 9.427205 -99.527229 -6.805604 -27.106323 -16.606384 0.000000 0.000000 8.679903 16.737415 -2.486282 38.889626 9.594346 -17.576931 100.316589 10.905042 -27.109697 43.999180 -0.000538 17.399616 -20.405159 10.797662 0.233442 47.454395 -2.343070 -0.149307 32.509850 -2.573077 0.952554 -20.404957 -10.801742 -0.236303 47.454285 2.341269 0.144693 32.509842 2.568740 -0.954932 
0.000000 5.840584 0.000000 -90.001877 0.000000 0.000000 0.261402 0.541587 -0.556560 1.740723 6.770503 1.618343 18.159256 -0.682543 -5.042519 18.403599 0.000000 0.000000 -0.010062 -8.370779 -0.209368 -27.321350 -42.679741 8.811165 -99.037247 -7.043203 -27.898129 -17.345301 0.000000 0.000000 8.679903 16.737415 -2.486282 38.322784 9.897686 -17.319254 99.003906 11.675039 -27.856218 43.999180 -0.000538 17.399616 -20.405159 10.797662 0.233442 47.454395 -2.343070 -0.149307 32.509850 -2.573077 0.952554 -20.404957 -10.801742 -0.236303 47.454285 2.341269 0.144693 32.509842 2.568740 -0.954932 
0.000000 5.840584 0.000000 -90.001877 0.000000 0.000000 0.261402 0.541587 -0.556560 1.740723 6.770503 1.618343 15.912114 -0.657747 -4.410469 20.211445 0.000000 0.000000 -0.010062 -8.370779 -0.209368 -26.556623 -42.613995 8.196484 -98.549355 -7.287999 -28.689886 -18.085018 0.000000 0.000000 8.679904 16.737415 -2.486282 37.756214 10.203848 -17.064131 97.690041 12.466305 -28.590956 43.999180 -0.000538 17.399616 -20.405159 10.797662 0.233442 47.454395 -2.343070 -0.149307 32.509850 -2.573077 0.952554 -20.404957 -10.801742 -0.236303 47.454285 2.341269 0.144693 32.509842 2.568740 -0.954932 
0.000000 5.840584 0.000000 -90.001877 0.000000 0.000000 0.261402 0.541587 -0.556560 1.740723 6.770503 1.618343 13.668178 -0.608267 -3.780659 22.017939 0.000000 0.000000 -0.010062 -8.370779 -0.209368 -25.793264 -42.542164 7.583348 -98.063744 -7.539941 -29.481464 -18.825481 0.000000 0.000000 8.679903 16.737415 -2.486282 37.189915 10.512775 -16.811602 96.375366 13.278254 -29.313086 43.999180 -0.000538 17.399616 -20.405159 10.797662 0.233442 47.454395 -2.343070 -0.149307 32.509850 -2.573077 0.952554 -20.404957 -10.801742 -0.236303 47.454285 2.341269 0.144693 32.509842 2.568740 -0.954932 
